# xmcd CD database file
#
# Track frame offsets:
#	150
#	18832
#	38607
#	53114
#	83223
#	99427
#	119843
#	134619
#	148770
#	165847
#	190132
#	202036
#	218980
#	228797
#
# Disc length: 3142 seconds
#
# Revision: 0
# Processed by: cddbd v1.5.1PL0 Copyright (c) Steve Scherf et al.
# Submitted via: CDex 1.50Beta7
#
DISCID=bf0c440e
DTITLE=原作 宮野ともちか - ゆびさきミルクティー
DYEAR=2004
DGENRE=Other
TTITLE0=幼いゆめ
TTITLE1=苺ショートと隣の女の子
TTITLE2=河原の少女たち
TTITLE3=優等生の素顔
TTITLE4=訪れた家庭教師
TTITLE5=チクチクジェラシー
TTITLE6=女の子の心
TTITLE7=揺れる水面
TTITLE8=優しくしたい
TTITLE9=指先の温度
TTITLE10=大人になっていくこと
TTITLE11=告白
TTITLE12=うまく伝えられなくて
TTITLE13=ハートの色ハートの形
EXTD=YEAR: 2004
EXTT0=
EXTT1=
EXTT2=
EXTT3=
EXTT4=
EXTT5=
EXTT6=
EXTT7=
EXTT8=
EXTT9=
EXTT10=
EXTT11=
EXTT12=
EXTT13=
PLAYORDER=
